<?xml version="1.0" encoding="utf-8"?>
<!-- Generator: Adobe Illustrator 13.0.0, SVG Export Plug-In . SVG Version: 6.00 Build 14948)  -->
<!DOCTYPE svg PUBLIC "-//W3C//DTD SVG 1.1//EN" "http://www.w3.org/Graphics/SVG/1.1/DTD/svg11.dtd">
<svg version="1.1" id="Layer_1" xmlns="http://www.w3.org/2000/svg" xmlns:xlink="http://www.w3.org/1999/xlink" x="0px" y="0px"
	 width="800px" height="600px" viewBox="-7.77 -37.811 800 600" enable-background="new -7.77 -37.811 800 600"
	 xml:space="preserve">
<g>
	<path fill="#C30F23" d="M490.842,186.271c-8.07,14.547-16.065,22.838-23.979,24.87c-3.213,0.828-6.094,0.367-8.639-1.381
		c-2.545-1.748-4.3-4.517-5.276-8.31c-1.318-5.13-1.226-13.511,0.283-25.146c0.806-6.241,1.011-10.123,0.612-11.654
		c-0.393-1.537-1.194-2.153-2.39-1.842c-0.679,0.174-1.475,0.734-2.401,1.686c-0.833,0.937-1.773,2.166-2.8,3.715
		c-0.928,1.406-1.924,3.099-2.999,5.052c-0.952,1.687-1.947,3.578-2.989,5.681l-2.828,5.721c-1.22,2.607-1.736,5.174-1.556,7.675
		c0.33,4.269,0.814,8.132,1.442,11.592c0.511,2.582,4.772,9.682,2.962,13.757c-1.711,3.855-11.117,7.218-15.468,4.412
		c-5.638-3.637-3.696-11.088-4.502-14.255c-1.988-7.725-2.968-15.266-2.946-22.629c0.024-7.37-2.078-27.975,3.901-35.761
		c2.813-3.656,13.552-1.077,15.468,2.336c5.357,9.538-1.556,19.319-1.244,25.311c5.606-10.789,10.285-18.473,14.031-23.046
		c3.755-4.561,7.423-7.308,11.013-8.226c2.445-0.632,4.717-0.23,6.819,1.188c2.104,1.428,3.509,3.531,4.219,6.309
		c1.183,4.595,1.07,12.702-0.343,24.316c-0.971,7.964-1.176,13.026-0.615,15.191c0.733,2.89,2.289,4.029,4.643,3.419
		c3.509-0.899,7.995-6.981,13.452-18.256L490.842,186.271z"/>
	<path fill="#C30F23" d="M644.359,146.83c-1.307,8.655-12.755,16-24.533,25.622c-1.21,13.807-3.927,24.055-8.139,30.743
		c-4.222,6.677-9.346,10.792-15.394,12.345c-3.067,0.791-5.769,0.492-8.096-0.905c-2.333-1.397-3.896-3.655-4.69-6.772
		c-2.434-9.442,4.024-20.231,19.369-32.349l0.411-16.601c-6.466,12.45-13.123,19.556-19.985,21.311
		c-3.69,0.958-7.063,0.211-10.117-2.228c-3.056-2.433-5.227-6.166-6.524-11.203c-1.855-7.243-2.272-15.421-1.246-24.521
		c0,0,1.35-20.474,2.937-25.246c3.92-11.754,13.435-8.497,16.221-4.48c6.527,9.404-0.49,24.316-0.49,24.316
		c-1.47,11.361-1.516,19.655-0.155,24.875c1.106,4.325,3.123,6.107,6.048,5.357c2.974-0.766,5.749-4.032,8.334-9.806
		c2.582-5.78,4.271-12.5,5.056-20.175c0,0-0.019-18.978,2.396-24.687c1.904-4.501,11.85-13.978,16.09-11.06
		c12.612,8.665-1.661,63.4-1.661,63.4c9.688-7.852,11.213-26.761,22.039-26.204C644.365,138.669,644.676,144.714,644.359,146.83z
		 M602.615,183.166c-5.214,4.153-9.003,8.282-11.349,12.388c-2.346,4.104-3.111,7.74-2.296,10.907
		c0.827,3.211,2.601,4.468,5.342,3.765C599.628,208.863,602.404,199.841,602.615,183.166z"/>
	<path fill="#231916" d="M505.903,141.354c0,0-19.012,21.059-12.305,40.63c0.857,2.508,0.081,5.426,5.619,8.96
		c2.831,1.801,9.544,0.473,6.744-5.121C503.161,180.223,499.378,161.669,505.903,141.354z"/>
	<path d="M539.346,271.492c-6.15,9.791-11.495,17.207-16.028,22.277c-4.539,5.081-8.997,8.176-13.361,9.293
		c-4.871,1.25-9.104,0.271-12.719-2.939c-3.614-3.198-6.271-8.126-7.977-14.777c-4.865,9.189-9.515,16.251-13.962,21.154
		c-4.449,4.916-9.223,8.033-14.336,9.354c-4.68,1.199-8.93,0.221-12.756-2.929c-3.826-3.146-6.599-8.054-8.31-14.706
		c-3.288-12.805-3.612-31.941-0.971-57.423c0,0-1.397-11.822,7.272-12.948c12.03-1.55,14.818,8.947,14.818,8.947
		c-2.558,32.115-1.463,45.104,0.659,53.479c1.519,5.908,4.492,8.291,8.929,7.152c3.198-0.83,6.499-4.439,9.905-10.863
		c3.402-6.425,5.188-11.723,5.362-15.9c0,0-0.059-32.02,1.991-42.441c0.848-4.306,2.98-8.381,12.675-12.108
		c13.112-5.053,10.067,12.674,10.067,12.674c-1.046,20.016-0.592,21.951-0.821,30.015c-0.229,8.064,0.04,13.608,0.821,16.625
		c1.48,5.793,4.199,8.182,8.142,7.164c3.201-0.824,7.195-4.961,11.975-12.428l5.897-9.293L539.346,271.492z"/>
	<path d="M548.881,264.302c4.367-1.113,7.578-4.698,9.638-10.74c2.06-6.038,3.006-13.278,2.844-21.696
		c-0.162-8.424-0.641-14.174-1.431-17.257c-0.741-2.89-2.078-5.093-4.007-6.592c-1.931-1.512-3.971-1.991-6.13-1.431
		c-6.521,1.68-11.088,7.535-13.688,17.593c-2.598,10.058-2.726,19.634-0.386,28.746c1.085,4.247,2.831,7.395,5.227,9.433
		C543.34,264.402,545.988,265.054,548.881,264.302z M562.713,285.955c-18.052,12.245-25.872,23.053-23.471,32.414
		c0.709,2.766,2.128,4.813,4.237,6.141c2.109,1.332,4.461,1.659,7.043,0.993c4.438-1.133,7.566-4.925,9.383-11.362
		C561.733,307.695,562.666,298.306,562.713,285.955z M611.27,239.601c-0.037,0.529-3.559,8.083-3.727,8.567
		c-1.937,5.435-6.927,9.255-11.032,13.154c-1.425,1.356-12.265,8.438-12.356,9.955c-1.012,17.267-4.331,31.213-9.975,41.855
		c-5.637,10.628-12.854,17.074-21.659,19.345c-4.807,1.232-9.071,0.717-12.805-1.529c-3.728-2.266-6.229-5.855-7.491-10.777
		c-1.692-6.589-0.271-13.252,4.262-19.997c4.536-6.745,13.229-14.36,26.077-22.845l-0.703-19.21
		c-4.206,8.169-8.058,14.361-11.566,18.58c-3.516,4.215-7.457,6.881-11.828,8.008c-5.108,1.313-9.911-0.02-14.403-3.979
		c-4.499-3.97-7.74-9.79-9.713-17.487c-3.224-12.559-1.469-25.56,5.276-39.012c6.751-13.443,15.508-21.553,26.274-24.322
		c5.967-1.531,11.903-0.374,17.813,3.484c-1.661-1.074-0.565-8.5,0.063-10.055c2.122-5.332,10.587-7.174,15.499-4.937
		c3.982,1.817,5.894,5.603,6.671,9.697c2.081,11.026-2.104,21.952-2.757,32.896c-0.609,10.142-0.155,20.95,1.338,30.982
		c9.464-5.279,16.815-11.931,17.422-21.637C602.69,228.407,612.013,228.04,611.27,239.601z"/>
	<path fill="#231916" d="M501.058,156.81c-0.336,2.458-1.27,4.362-2.078,4.256c-0.817-0.118-1.2-2.212-0.864-4.667
		c0.342-2.47,1.271-4.374,2.084-4.269C501.015,152.246,501.401,154.333,501.058,156.81z"/>
	<path fill="#231916" d="M536.487,92.679c-0.342,2.461-1.274,4.374-2.091,4.262c-0.814-0.115-1.2-2.209-0.864-4.667
		c0.342-2.47,1.272-4.375,2.091-4.269C536.437,88.124,536.817,90.215,536.487,92.679z"/>
	<path fill="#C30F23" d="M354.059,230.342c-23.759,41.756-58.497,68.511-104.223,80.26c-32.767,8.412-62.258,5.045-88.49-10.122
		c-26.226-15.154-43.486-38.844-51.755-71.059c-8.244-32.071-8.509-64.529-0.784-97.356c7.715-32.825,21.591-61.063,41.638-84.688
		c20.049-23.632,41.875-38.49,65.494-44.557c19.792-5.083,37.457-3.294,53,5.385c15.543,8.661,25.747,22.483,30.619,41.458
		c6.353,24.705,4.306,48.037-6.128,69.995c-10.435,21.97-25.759,35.541-45.957,40.723c-10.652,2.738-20.088,2.259-28.31-1.453
		c-8.235-3.699-13.446-9.856-15.655-18.452c-1.898-7.379-0.716-14.952,3.54-22.745c6.437,6.935,13.477,9.423,21.124,7.451
		c10.914-2.806,19.301-12.226,25.141-28.282c5.839-16.05,6.68-32.203,2.511-48.436c-2.912-11.333-7.861-19.674-14.827-25.013
		c-6.979-5.332-14.833-6.878-23.566-4.638c-12.696,3.263-24.204,14.662-34.539,34.19c-10.332,19.541-17.12,42.964-20.362,70.278
		c-3.238,27.312-1.984,52.169,3.771,74.556c7.327,28.528,21.426,49.857,42.297,63.991c20.875,14.134,43.804,17.988,68.785,11.57
		c15.835-4.069,29.156-11.393,39.964-22.004c10.808-10.593,21.031-25.47,30.663-44.591L354.059,230.342z"/>
	<path fill="#C30F23" d="M420.277,204.408c-5.805,9.259-10.076,15.412-12.815,18.467c-2.744,3.061-5.625,4.981-8.648,5.762
		c-7.573,1.941-12.868-3.836-15.873-17.325c-3.037,8.092-6.157,14.283-9.377,18.588c-3.21,4.299-6.975,7.006-11.293,8.113
		c-4.219,1.089-8.319,0.031-12.282-3.173c-3.958-3.192-6.683-7.672-8.164-13.427c-1.848-7.199-1.63-14.556,0.647-22.101
		c2.276-7.529,5.995-14.112,11.149-19.73c5.152-5.619,10.103-9.038,14.853-10.257c5.992-1.54,10.897,0.143,14.709,5.043
		c0,0,1.182-13.166,10.129-15.406c1.687-0.423,5.712,1.801,6.521,2.458c4.425,3.572-0.927,22.714-0.927,22.714
		c-0.544,11.427-0.312,19.124,0.7,23.056c1.061,4.119,3.045,5.805,5.97,5.053c1.873-0.473,3.678-2.004,5.417-4.573
		c1.744-2.563,4.127-6.421,7.151-11.536L420.277,204.408z M368.628,221.893c4.797-1.232,8.269-6.483,10.416-15.748
		c2.14-9.271,2.32-17.354,0.547-24.266c-0.69-2.682-1.829-4.629-3.416-5.827c-1.586-1.204-3.386-1.546-5.4-1.03
		c-4.801,1.232-8.288,6.471-10.491,15.723c-2.195,9.265-2.414,17.316-0.652,24.179c0.672,2.588,1.845,4.523,3.527,5.808
		C364.839,222.004,366.661,222.396,368.628,221.893z"/>
	<path d="M397.816,257.517c0.516,4.899-4.455,8.453-5.202,13.001c-0.753,4.573-0.286,12.997,1.381,25.299
		c1.675,12.301,2.498,22.761,2.465,31.406c-0.031,8.633-1.756,17.113-5.158,25.434c-3.403,8.324-8.586,15.499-15.537,21.521
		c-6.956,6.008-15.021,10.197-24.186,12.559c-8.193,2.095-14.901,1.981-20.121-0.352c-5.233-2.324-8.655-6.656-10.285-13.001
		c-0.585-2.274-0.686-4.25-0.921-5.874c-0.522-3.688,1.586-10.449,5.07-13.474c3.491-3.033,7.274-2.646,8.667-2.521
		c6.154,0.561,5.839,2.141,6.708,5.531c0.144,0.557,0.393,2.538,0.747,5.957c0.354,3.42,0.616,5.473,0.79,6.151
		c1.941,7.565,6.183,10.521,12.706,8.838c6.589-1.692,11.212-7.457,13.869-17.294c2.657-9.844,2.855-23.557,0.597-41.152
		c-2.259-17.597-2.327-30.134-0.211-37.601c2.122-7.466,5.625-13.683,10.516-18.647c4.896-4.968,8.94-7.858,12.143-8.674
		C393.454,254.204,397.474,254.197,397.816,257.517z M403.945,294.037c6.592-1.688,10.722-5.531,12.406-11.51
		c1.68-5.971,1.729-12.037,0.149-18.193c-2.188-8.5-6.745-14.557-13.684-18.188c-6.938-3.643-15.182-4.222-24.72-1.767
		c-12.806,3.279-23.367,9.956-31.677,19.988c-8.316,10.053-11.318,19.563-9.004,28.545c1.369,5.366,5.271,8.536,11.686,9.5
		c1.637,0.242,2.533,0.643,2.669,1.189c0.184,0.721,0.74,2.857,0.74,2.857c0.212,3.954,1.231,6.536-3.143,9.828
		c-4.368,3.281-8.243,2.962-9.787,3.347c-2.401,0.619-7.311-1.387-10.779-4.672c-3.47-3.269-5.734-7.006-6.816-11.192
		c-1.879-7.325-0.846-15.755,3.1-25.307c3.944-9.538,10.758-18.15,20.438-25.825c9.675-7.668,21.591-13.318,35.746-16.958
		c15.15-3.898,28.23-3.864,39.246,0.05c11.021,3.932,17.798,10.851,20.35,20.763c3.795,14.778-4.076,27.564-23.619,38.36
		c17.752,0.883,28.56,8.838,32.417,23.857c2.818,10.957,1.12,21.42-5.076,31.378c-6.204,9.965-15.026,16.414-26.481,19.354
		c-5.046,1.301-9.526,1.365-13.434,0.205c-3.907-1.164-6.234-3.194-6.976-6.084c-0.491-1.904-0.081-4.771,1.244-8.594
		c1.307-3.809,2.895-5.961,4.741-6.428c2.52-0.65,4.785,1.917,6.801,7.703c1.568,4.578,3.621,6.552,6.141,5.9
		c4.127-1.058,6.597-6.58,7.411-16.565c0.81-9.992,0.024-19.63-2.363-28.929c-2.9-11.267-8.537-16.479-16.912-15.633
		L403.945,294.037z"/>
	<path fill="#C30F23" d="M566.754,166.41c-0.121,0.846-0.364,1.761-0.781,2.831c-2.896,7.417-11.025,19.27-19.26,21.385
		c-3.407,0.88-6.524-0.081-9.368-2.878c-2.843-2.8-5.103-7.382-6.794-13.748c-2.29,7.386-5.326,13.328-9.101,17.826
		c-3.786,4.505-7.538,7.224-11.283,8.191c-4.075,1.048-8.169,0.041-12.276-3.018c-4.112-3.058-6.831-7.183-8.163-12.36
		c-2.744-10.693-1.394-21.616,4.051-32.75c5.444-11.141,12.652-17.86,21.622-20.163c2.488-0.641,4.542-0.787,6.145-0.423
		c1.597,0.355,3.457,1.176,5.578,2.47c0,0-3.191-35.457,2.639-45.272c4.558-7.666,9.949-8.614,12.83-7.7
		c8.63,2.729,5.086,19.578,4.635,25.837c-0.722,9.971-1.816,19.911-2.034,29.919c-0.144,6.645-2.539,31.356,4.734,35.419
		c6.073,3.391,13.415-9.644,15.604-13.713C566.279,161.875,567.112,163.815,566.754,166.41z M516.564,183.729
		c4.701-1.204,8.067-6.315,10.103-15.328c2.03-9.01,2.151-16.989,0.369-23.943c-0.733-2.828-1.946-4.915-3.646-6.271
		c-1.704-1.35-3.583-1.764-5.649-1.232c-4.455,1.151-7.703,6.418-9.743,15.804c-2.027,9.393-2.188,17.447-0.464,24.161
		c0.683,2.644,1.826,4.561,3.45,5.792C512.594,183.932,514.454,184.268,516.564,183.729z"/>
</g>
<text transform="matrix(1 0 0 1 113.9133 509.1328)" fill="#C30F23" font-family="'MyriadPro-Regular'" font-size="33.5995">TEAM CANDY BUG_ENTERTAINMENT </text>
</svg>
