<?xml version="1.0" encoding="utf-8"?>
<!-- Generator: Adobe Illustrator 26.0.0, SVG Export Plug-In . SVG Version: 6.00 Build 0)  -->
<svg version="1.1" id="Layer_1" xmlns="http://www.w3.org/2000/svg" xmlns:xlink="http://www.w3.org/1999/xlink" x="0px" y="0px"
	 viewBox="0 0 48 48" style="enable-background:new 0 0 48 48;" xml:space="preserve">
<style type="text/css">
	.st0{fill:#FFFFFF;}
</style>
<path class="st0" d="M24.1,46v-3H39v-2.7h-7.4V25.5H39v-3.4c0-4.1-1.5-7.7-4.3-10.7c-2.9-3-6.4-4.5-10.6-4.5s-7.7,1.5-10.7,4.5
	S9,18,9,22.1v3.4h7.4v14.8H9c-0.8,0-1.5-0.3-2.1-0.9C6.3,38.8,6,38.1,6,37.3V22.1c0-2.5,0.5-4.8,1.4-7c0.9-2.2,2.2-4.1,3.9-5.8
	s3.6-2.9,5.8-3.9c2.2-1,4.6-1.4,7-1.4c2.5,0,4.8,0.5,7,1.4s4.1,2.2,5.7,3.9c1.6,1.6,2.9,3.6,3.8,5.8c0.9,2.2,1.4,4.6,1.4,7V43
	c0,0.8-0.3,1.5-0.9,2.1C40.5,45.7,39.8,46,39,46H24.1z M9,37.3h4.4v-8.8H9V37.3z M34.6,37.3H39v-8.8h-4.4V37.3z M39,37.3h-4.4H39z
	 M13.4,37.3H9H13.4z"/>
</svg>
