<?xml version="1.0" encoding="utf-8"?>
<!-- Generator: Adobe Illustrator 26.0.0, SVG Export Plug-In . SVG Version: 6.00 Build 0)  -->
<svg version="1.1" id="Layer_1" xmlns="http://www.w3.org/2000/svg" xmlns:xlink="http://www.w3.org/1999/xlink" x="0px" y="0px"
	 viewBox="0 0 48 48" style="enable-background:new 0 0 48 48;" xml:space="preserve">
<style type="text/css">
	.st0{fill:#FFFFFF;}
</style>
<path class="st0" d="M27,27c-1.7,0-3.1-0.6-4.2-1.8C21.6,24.1,21,22.7,21,21c0-1.7,0.6-3.1,1.8-4.2c1.2-1.2,2.6-1.8,4.2-1.8
	s3.1,0.6,4.2,1.8c1.2,1.2,1.8,2.6,1.8,4.2c0,1.7-0.6,3.1-1.8,4.2C30.1,26.4,28.7,27,27,27z M11,34c-0.8,0-1.5-0.3-2.1-0.9
	C8.3,32.5,8,31.8,8,31V11c0-0.8,0.3-1.5,0.9-2.1C9.5,8.3,10.2,8,11,8h32c0.8,0,1.5,0.3,2.1,0.9C45.7,9.5,46,10.2,46,11v20
	c0,0.8-0.3,1.5-0.9,2.1C44.5,33.7,43.8,34,43,34H11z M16,31h22c0-1.4,0.5-2.6,1.5-3.5S41.6,26,43,26V16c-1.4,0-2.6-0.5-3.5-1.4
	S38,12.4,38,11H16c0,1.4-0.5,2.6-1.4,3.6S12.4,16,11,16v10c1.4,0,2.6,0.5,3.6,1.5S16,29.6,16,31z M40,40H5c-0.8,0-1.5-0.3-2.1-0.9
	C2.3,38.5,2,37.8,2,37V14h3v23h35V40z M11,31V11V31z"/>
</svg>
