<?xml version="1.0" encoding="utf-8"?>
<!-- Generator: Adobe Illustrator 26.0.0, SVG Export Plug-In . SVG Version: 6.00 Build 0)  -->
<svg version="1.1" id="Layer_1" xmlns="http://www.w3.org/2000/svg" xmlns:xlink="http://www.w3.org/1999/xlink" x="0px" y="0px"
	 viewBox="0 0 48 48" style="enable-background:new 0 0 48 48;" xml:space="preserve">
<style type="text/css">
	.st0{fill:#FFFFFF;}
</style>
<path class="st0" d="M34.2,29c-1.3,0-2.4-0.5-3.3-1.4s-1.4-2-1.4-3.3s0.5-2.4,1.4-3.3c0.9-0.9,2-1.4,3.3-1.4s2.4,0.5,3.3,1.4
	c0.9,0.9,1.4,2,1.4,3.3s-0.5,2.4-1.4,3.3C36.6,28.5,35.5,29,34.2,29z M24.4,40v-2.5c0-0.9,0.2-1.6,0.6-2.2c0.4-0.6,0.9-1.1,1.5-1.4
	c1.2-0.6,2.5-1.1,3.8-1.4c1.3-0.3,2.6-0.5,4-0.5s2.7,0.1,4,0.4s2.5,0.8,3.8,1.4c0.7,0.3,1.2,0.8,1.5,1.4s0.5,1.4,0.5,2.2V40H24.4z
	 M20,24c-2.2,0-4-0.7-5.4-2.1s-2.1-3.2-2.1-5.4s0.7-4,2.1-5.4s3.2-2.1,5.4-2.1s4,0.7,5.4,2.1c1.4,1.4,2.1,3.2,2.1,5.4
	s-0.7,4-2.1,5.4C24,23.2,22.2,24,20,24z M4,40v-4.7c0-1.1,0.3-2.2,0.8-3.1c0.6-0.9,1.4-1.7,2.5-2.2c2.2-1,4.4-1.8,6.4-2.2
	S17.9,27,20,27c1.1,0,2,0.1,2.9,0.1c0.8,0.1,1.7,0.2,2.7,0.5l-1.3,1.3L23,30.1c-0.4-0.1-0.9-0.1-1.4-0.1c-0.5,0-1,0-1.6,0
	c-1.9,0-3.7,0.2-5.5,0.6c-1.8,0.4-3.8,1.1-5.9,2.1c-0.5,0.2-0.9,0.6-1.2,1.1c-0.3,0.5-0.5,1-0.5,1.5V37h14.4v3H4z M20,21
	c1.3,0,2.4-0.4,3.2-1.3c0.9-0.8,1.3-1.9,1.3-3.2s-0.4-2.4-1.3-3.2c-0.9-0.9-1.9-1.3-3.2-1.3c-1.3,0-2.4,0.4-3.2,1.3
	c-0.8,0.8-1.3,1.9-1.3,3.2s0.4,2.4,1.3,3.2C17.6,20.5,18.7,21,20,21z"/>
</svg>
