<?xml version="1.0" encoding="utf-8"?>
<!-- Generator: Adobe Illustrator 26.0.0, SVG Export Plug-In . SVG Version: 6.00 Build 0)  -->
<svg version="1.1" id="Layer_1" xmlns="http://www.w3.org/2000/svg" xmlns:xlink="http://www.w3.org/1999/xlink" x="0px" y="0px"
	 viewBox="0 0 48 48" style="enable-background:new 0 0 48 48;" xml:space="preserve">
<style type="text/css">
	.st0{fill:#FFFFFF;}
</style>
<path class="st0" d="M28.8,29.8c-0.6-1.7-1.8-3.1-3.7-4.1c-1.9-1-4.5-1.6-7.9-1.6s-6,0.5-7.9,1.6s-3.1,2.4-3.8,4.1H28.8z M2,32.8
	c0-1.6,0.3-3.1,0.9-4.5c0.6-1.4,1.5-2.6,2.8-3.7c1.2-1.1,2.8-1.9,4.8-2.5c1.9-0.6,4.2-0.9,6.9-0.9s4.9,0.3,6.8,0.9
	c1.9,0.6,3.5,1.4,4.7,2.5c1.2,1,2.2,2.3,2.8,3.7c0.6,1.4,0.9,2.9,0.9,4.5H2z M2,39.2v-3h30.4v3H2z M35.4,46v-3h4.3l2.8-29H22.6
	l-0.3-3h10.2V2h3v9H46l-3.3,32c-0.1,0.9-0.5,1.6-1.1,2.2S40.2,46,39.2,46H35.4z M35.4,43h4.3H35.4z M3.5,46c-0.4,0-0.8-0.1-1-0.5
	c-0.3-0.3-0.5-0.6-0.5-1V43h30.4v1.5c0,0.4-0.2,0.8-0.5,1c-0.3,0.3-0.6,0.5-1.1,0.5H3.5z"/>
</svg>
